<mxfile host="65bd71144e">
    <diagram id="rirnNbYvnNrdfWeiWco_" name="Page-1">
        <mxGraphModel dx="898" dy="566" grid="1" gridSize="10" guides="1" tooltips="1" connect="1" arrows="1" fold="1" page="1" pageScale="1" pageWidth="1169" pageHeight="827" math="0" shadow="0">
            <root>
                <mxCell id="0"/>
                <mxCell id="1" parent="0"/>
                <mxCell id="2" value="网联汽车生命周期" style="text;html=1;strokeColor=none;fillColor=none;align=center;verticalAlign=middle;whiteSpace=wrap;rounded=0;" vertex="1" parent="1">
                    <mxGeometry x="100" y="30" width="110" height="20" as="geometry"/>
                </mxCell>
                <mxCell id="3" value="开发（Development）" style="text;html=1;strokeColor=none;fillColor=none;align=center;verticalAlign=middle;whiteSpace=wrap;rounded=0;" vertex="1" parent="1">
                    <mxGeometry x="100" y="58" width="130" height="20" as="geometry"/>
                </mxCell>
                <mxCell id="4" value="生产（Production）" style="text;html=1;strokeColor=none;fillColor=none;align=center;verticalAlign=middle;whiteSpace=wrap;rounded=0;" vertex="1" parent="1">
                    <mxGeometry x="240" y="58" width="130" height="20" as="geometry"/>
                </mxCell>
                <mxCell id="5" value="后生产（Post-production）" style="text;html=1;strokeColor=none;fillColor=none;align=center;verticalAlign=middle;whiteSpace=wrap;rounded=0;" vertex="1" parent="1">
                    <mxGeometry x="380" y="58" width="150" height="20" as="geometry"/>
                </mxCell>
                <mxCell id="6" value="" style="endArrow=none;html=1;" edge="1" parent="1">
                    <mxGeometry width="50" height="50" relative="1" as="geometry">
                        <mxPoint x="106" y="53" as="sourcePoint"/>
                        <mxPoint x="520" y="53" as="targetPoint"/>
                    </mxGeometry>
                </mxCell>
                <mxCell id="7" value="" style="endArrow=classic;html=1;" edge="1" parent="1">
                    <mxGeometry width="50" height="50" relative="1" as="geometry">
                        <mxPoint x="110" y="81" as="sourcePoint"/>
                        <mxPoint x="240" y="81" as="targetPoint"/>
                    </mxGeometry>
                </mxCell>
                <mxCell id="8" value="" style="endArrow=classic;html=1;" edge="1" parent="1">
                    <mxGeometry width="50" height="50" relative="1" as="geometry">
                        <mxPoint x="240" y="81" as="sourcePoint"/>
                        <mxPoint x="370" y="81" as="targetPoint"/>
                    </mxGeometry>
                </mxCell>
                <mxCell id="9" value="" style="endArrow=classic;html=1;" edge="1" parent="1">
                    <mxGeometry width="50" height="50" relative="1" as="geometry">
                        <mxPoint x="370" y="81" as="sourcePoint"/>
                        <mxPoint x="520" y="81" as="targetPoint"/>
                    </mxGeometry>
                </mxCell>
                <mxCell id="12" value="网络安全生命周期" style="text;html=1;strokeColor=none;fillColor=none;align=center;verticalAlign=middle;whiteSpace=wrap;rounded=0;" vertex="1" parent="1">
                    <mxGeometry x="40" y="150" width="10" height="20" as="geometry"/>
                </mxCell>
                <mxCell id="13" value="管理车辆网络安全风险" style="text;html=1;strokeColor=none;fillColor=none;align=center;verticalAlign=middle;whiteSpace=wrap;rounded=0;" vertex="1" parent="1">
                    <mxGeometry x="60" y="90" width="30" height="80" as="geometry"/>
                </mxCell>
                <mxCell id="20" value="&lt;span&gt;针对每一车型，贯穿供应链，识别和管理网络安全风险&lt;/span&gt;" style="rounded=0;whiteSpace=wrap;html=1;" vertex="1" parent="1">
                    <mxGeometry x="110" y="90" width="410" height="20" as="geometry"/>
                </mxCell>
                <mxCell id="21" value="&lt;span&gt;确保系统通过安全测试&lt;/span&gt;" style="rounded=0;whiteSpace=wrap;html=1;" vertex="1" parent="1">
                    <mxGeometry x="110" y="113" width="250" height="20" as="geometry"/>
                </mxCell>
                <mxCell id="22" value="&lt;span&gt;对新的和发生的网络威胁和漏洞进行响应&lt;/span&gt;" style="rounded=0;whiteSpace=wrap;html=1;" vertex="1" parent="1">
                    <mxGeometry x="110" y="136" width="410" height="20" as="geometry"/>
                </mxCell>
                <mxCell id="23" value="通过安全设计加固车辆" style="text;html=1;strokeColor=none;fillColor=none;align=center;verticalAlign=middle;whiteSpace=wrap;rounded=0;" vertex="1" parent="1">
                    <mxGeometry x="60" y="190" width="30" height="80" as="geometry"/>
                </mxCell>
                <mxCell id="24" value="在具体设计阶段确保安全和测试信息，并在全供应链中收集证据" style="rounded=0;whiteSpace=wrap;html=1;" vertex="1" parent="1">
                    <mxGeometry x="110" y="178" width="410" height="20" as="geometry"/>
                </mxCell>
                <mxCell id="25" value="&lt;span&gt;分析网络安全威胁并生成风险处置计划&lt;/span&gt;" style="rounded=0;whiteSpace=wrap;html=1;align=center;" vertex="1" parent="1">
                    <mxGeometry x="110" y="205" width="130" height="30" as="geometry"/>
                </mxCell>
                <mxCell id="26" value="&lt;span&gt;在系统设计时构建安全，排除软硬件组件中的已知漏洞&lt;/span&gt;" style="rounded=0;whiteSpace=wrap;html=1;align=center;" vertex="1" parent="1">
                    <mxGeometry x="110" y="242.5" width="130" height="45" as="geometry"/>
                </mxCell>
                <mxCell id="27" value="" style="endArrow=none;html=1;" edge="1" parent="1">
                    <mxGeometry width="50" height="50" relative="1" as="geometry">
                        <mxPoint x="112" y="167" as="sourcePoint"/>
                        <mxPoint x="521" y="167" as="targetPoint"/>
                    </mxGeometry>
                </mxCell>
                <mxCell id="28" value="保护供应商软硬件组件的完整性" style="rounded=0;whiteSpace=wrap;html=1;" vertex="1" parent="1">
                    <mxGeometry x="250" y="242.5" width="270" height="45" as="geometry"/>
                </mxCell>
                <mxCell id="29" value="&lt;span&gt;测试软硬件组件的安全性（漏洞扫描、渗透测试、代码分析）&lt;/span&gt;" style="rounded=0;whiteSpace=wrap;html=1;align=center;" vertex="1" parent="1">
                    <mxGeometry x="110" y="295" width="130" height="45" as="geometry"/>
                </mxCell>
                <mxCell id="30" value="&lt;span&gt;保护对生产环境的访问（软件服务器和闪存处理）和供应商单元&lt;/span&gt;" style="rounded=0;whiteSpace=wrap;html=1;" vertex="1" parent="1">
                    <mxGeometry x="250" y="295" width="270" height="45" as="geometry"/>
                </mxCell>
                <mxCell id="31" value="对车辆和生态系统的网络攻击进行监视和响应" style="rounded=0;whiteSpace=wrap;html=1;" vertex="1" parent="1">
                    <mxGeometry x="370" y="361" width="150" height="30" as="geometry"/>
                </mxCell>
                <mxCell id="32" value="&lt;span&gt;在车辆生命周期中，确保软件版本和车辆配置的全面可跟踪&lt;/span&gt;" style="rounded=0;whiteSpace=wrap;html=1;" vertex="1" parent="1">
                    <mxGeometry x="110" y="408" width="410" height="20" as="geometry"/>
                </mxCell>
                <mxCell id="33" value="识别待更新的目标车辆，就车辆配置对已验证系统评估升级影响和兼容性" style="rounded=0;whiteSpace=wrap;html=1;" vertex="1" parent="1">
                    <mxGeometry x="370" y="436" width="150" height="45" as="geometry"/>
                </mxCell>
                <mxCell id="34" value="" style="endArrow=none;html=1;" edge="1" parent="1">
                    <mxGeometry width="50" height="50" relative="1" as="geometry">
                        <mxPoint x="108" y="352" as="sourcePoint"/>
                        <mxPoint x="522" y="352" as="targetPoint"/>
                    </mxGeometry>
                </mxCell>
                <mxCell id="35" value="提供不影响交通安全和网络安全影响的软件更新" style="rounded=0;whiteSpace=wrap;html=1;" vertex="1" parent="1">
                    <mxGeometry x="370" y="490" width="150" height="45" as="geometry"/>
                </mxCell>
                <mxCell id="39" value="" style="endArrow=none;html=1;" edge="1" parent="1">
                    <mxGeometry width="50" height="50" relative="1" as="geometry">
                        <mxPoint x="57" y="90" as="sourcePoint"/>
                        <mxPoint x="57" y="526" as="targetPoint"/>
                    </mxGeometry>
                </mxCell>
                <mxCell id="40" value="检查与响应网络安全事件" style="text;html=1;strokeColor=none;fillColor=none;align=center;verticalAlign=middle;whiteSpace=wrap;rounded=0;" vertex="1" parent="1">
                    <mxGeometry x="60" y="340" width="40" height="80" as="geometry"/>
                </mxCell>
                <mxCell id="41" value="提供交通安全和网络加固的软件升级" style="text;html=1;strokeColor=none;fillColor=none;align=center;verticalAlign=middle;whiteSpace=wrap;rounded=0;" vertex="1" parent="1">
                    <mxGeometry x="60" y="414" width="40" height="80" as="geometry"/>
                </mxCell>
                <mxCell id="42" value="" style="endArrow=none;html=1;" edge="1" parent="1">
                    <mxGeometry width="50" height="50" relative="1" as="geometry">
                        <mxPoint x="106" y="400.5" as="sourcePoint"/>
                        <mxPoint x="520" y="400.5" as="targetPoint"/>
                    </mxGeometry>
                </mxCell>
                <mxCell id="43" value="" style="endArrow=classic;html=1;" edge="1" parent="1">
                    <mxGeometry width="50" height="50" relative="1" as="geometry">
                        <mxPoint x="100" y="91" as="sourcePoint"/>
                        <mxPoint x="100" y="170" as="targetPoint"/>
                        <Array as="points">
                            <mxPoint x="100" y="161.75"/>
                        </Array>
                    </mxGeometry>
                </mxCell>
                <mxCell id="44" value="" style="endArrow=classic;html=1;" edge="1" parent="1">
                    <mxGeometry width="50" height="50" relative="1" as="geometry">
                        <mxPoint x="100" y="176" as="sourcePoint"/>
                        <mxPoint x="100" y="350" as="targetPoint"/>
                        <Array as="points">
                            <mxPoint x="100" y="266.75"/>
                        </Array>
                    </mxGeometry>
                </mxCell>
                <mxCell id="46" value="" style="endArrow=classic;html=1;" edge="1" parent="1">
                    <mxGeometry width="50" height="50" relative="1" as="geometry">
                        <mxPoint x="100" y="352" as="sourcePoint"/>
                        <mxPoint x="100" y="402" as="targetPoint"/>
                        <Array as="points">
                            <mxPoint x="100" y="402.75"/>
                        </Array>
                    </mxGeometry>
                </mxCell>
                <mxCell id="48" value="" style="endArrow=classic;html=1;" edge="1" parent="1">
                    <mxGeometry width="50" height="50" relative="1" as="geometry">
                        <mxPoint x="100" y="406" as="sourcePoint"/>
                        <mxPoint x="100" y="530" as="targetPoint"/>
                        <Array as="points">
                            <mxPoint x="100" y="477.75"/>
                        </Array>
                    </mxGeometry>
                </mxCell>
            </root>
        </mxGraphModel>
    </diagram>
</mxfile>